<?xml version="1.0" standalone="no"?>
<!DOCTYPE svg PUBLIC "-//W3C//DTD SVG 20010904//EN"
 "http://www.w3.org/TR/2001/REC-SVG-20010904/DTD/svg10.dtd">
<svg version="1.0" xmlns="http://www.w3.org/2000/svg"
 width="100.000000pt" height="40.000000pt" viewBox="0 0 100.000000 40.000000"
 preserveAspectRatio="xMidYMid meet">
<metadata>
Created by potrace 1.16, written by Peter Selinger 2001-2019
</metadata>
<g transform="translate(0.000000,40.000000) scale(0.100000,-0.100000)"
fill="#000000" stroke="none">
<path d="M166 320 c-65 -62 -116 -152 -116 -207 0 -64 33 -81 75 -39 34 34 72
42 80 16 11 -34 42 -44 73 -23 15 10 39 23 54 30 14 6 36 25 49 42 12 17 31
31 41 31 22 0 22 -8 3 -34 -8 -11 -15 -32 -15 -48 0 -36 25 -37 63 -3 32 30
35 40 8 25 -47 -25 -53 -4 -15 51 31 46 24 63 -22 54 -24 -4 -34 -2 -34 7 0 7
-12 0 -25 -15 -18 -20 -23 -35 -19 -52 4 -17 0 -26 -16 -35 -28 -15 -35 -8
-20 20 6 12 8 34 5 51 -5 24 -12 29 -35 29 -31 0 -84 -45 -95 -80 -4 -11 -13
-20 -21 -20 -17 0 -18 11 -2 45 6 14 8 28 5 32 -11 11 -57 -39 -57 -62 0 -23
-17 -45 -36 -45 -17 0 -27 35 -16 57 6 10 18 35 28 56 22 44 103 138 104 120
0 -7 -23 -43 -50 -80 l-51 -68 46 49 c26 27 55 66 66 87 38 76 19 79 -55 9z
m128 -162 c-4 -13 -8 -30 -9 -38 -2 -25 -15 -40 -36 -40 -28 0 -24 38 8 72 32
34 47 36 37 6z"/>
<path d="M635 323 c-97 -100 -139 -188 -116 -245 13 -34 37 -36 70 -4 15 13
38 26 54 30 22 5 27 3 27 -12 0 -10 5 -23 12 -30 26 -26 59 -12 122 48 71 68
109 82 76 28 -26 -44 -26 -78 0 -78 21 0 93 59 73 60 -6 0 -15 -4 -18 -10 -9
-14 -45 -13 -45 2 0 6 12 26 26 45 34 45 26 66 -22 57 -27 -5 -35 -4 -30 5 4
6 3 11 -3 11 -18 0 -43 -48 -36 -69 5 -17 -3 -26 -40 -50 -47 -30 -69 -31 -79
-5 -3 9 8 21 34 34 73 37 91 103 24 86 -27 -7 -79 -54 -100 -91 -9 -15 -15
-17 -24 -9 -8 8 -9 14 -1 18 13 8 15 56 3 56 -16 0 -45 -40 -48 -66 -3 -27
-21 -46 -39 -41 -14 5 -19 57 -5 57 6 0 8 4 5 10 -7 11 71 137 99 159 43 35
14 -21 -60 -119 -24 -32 -23 -31 11 5 70 75 117 165 85 165 -5 0 -30 -21 -55
-47z m139 -137 c-7 -18 -54 -50 -62 -42 -8 8 39 56 54 56 8 0 11 -6 8 -14z"/>
</g>
</svg>
